<svg width="277" height="130" viewBox="0 0 277 130" fill="none" xmlns="http://www.w3.org/2000/svg">
<path d="M69.1465 20.1354C56.845 21.9114 44.5724 23.882 32.3332 26.0464C32.3497 35.6082 32.4161 45.1696 32.5324 54.7306L32.6982 66.7214C32.7153 68.4464 32.8051 70.871 32.7309 72.5574C32.6858 73.5051 32.6722 74.2478 32.6894 75.2012C26.9911 75.265 21.2937 75.3932 15.5982 75.5858C11.8494 75.6911 7.02393 75.8788 3.30615 75.7245C3.86904 79.0357 4.16639 85.8785 4.51673 89.6396L7.78484 127.111C20.563 127.08 33.3412 127.212 46.116 127.507C64.6434 128.038 83.1594 129.104 101.686 129.693L159.186 130C164.07 129.823 168.935 129.625 173.816 129.364C188.921 128.636 204.019 127.725 219.103 126.631C221.953 126.408 231.705 125.146 233.538 126.048C234.302 126.663 270.401 128.734 274.359 128.824C274.303 122.97 274.89 117.407 275.044 111.671C275.37 99.5464 276.16 87.1864 276.381 75.088C271.615 74.5025 265.206 74.2776 260.251 73.904C258.158 73.6446 255.669 73.6253 253.53 73.4472C247.727 72.9642 241.779 72.7481 236.004 72.0972C233.557 71.5685 230.027 71.343 227.471 71.0211C224.697 70.7357 221.927 70.3003 219.15 70.0453C216.491 69.801 213.841 69.846 211.218 69.2575C211.103 68.714 210.983 68.1718 210.858 67.6307C210.912 58.0707 211.627 47.5232 211.954 37.8331C213.02 37.8371 216.216 38.21 216.944 37.8594C216.053 34.4344 215.235 30.6131 214.394 27.1371C213.389 22.9919 212.052 17.7023 211.388 13.4828C190.562 11.7915 169.658 11.2648 148.773 11.9052C134.425 12.4738 118.236 14.4761 103.911 16.0814C92.5283 17.357 80.4594 18.5879 69.1465 20.1354Z" fill="#B57EE0"/>
<path d="M32.3333 26.0464C44.5725 23.882 56.8451 21.9114 69.1466 20.1354C80.4595 18.5879 92.5284 17.357 103.911 16.0814C118.236 14.4761 134.425 12.4738 148.773 11.9052C169.658 11.2648 190.562 11.7915 211.388 13.4828C212.052 17.7023 213.39 22.9919 214.394 27.1371C215.235 30.6131 216.053 34.4344 216.944 37.8594C216.216 38.21 213.02 37.8371 211.955 37.8331C211.627 47.5232 210.912 58.0707 210.858 67.6307C203.122 68.1962 194.231 68.2088 186.385 68.4478L156.515 69.4677C147.502 69.751 137.988 69.9253 129.013 70.3932L64.1188 74.1C57.0317 74.4472 49.9728 75.014 42.8681 75.0341C39.5491 75.0435 36.1442 75.2635 32.8351 75.1845C32.8218 74.4722 32.8351 73.2218 32.731 72.5574C32.8052 70.871 32.7154 68.4464 32.6983 66.7214L32.5325 54.7306C32.4162 45.1696 32.3498 35.6082 32.3333 26.0464Z" fill="#1D0D1B"/>
<path d="M84.9986 28.2039C85.8258 28.1012 86.9875 28.0861 87.8425 28.0493C86.9115 34.652 85.8253 41.0526 84.6912 47.6178C83.9249 52.0533 83.5918 56.6968 82.8053 61.1532C82.4841 62.9719 82.2257 65.0015 82.0498 66.8426C77.7989 67.1867 73.4217 67.6156 69.1732 67.828C68.4787 63.7446 67.1228 59.9889 66.1834 56.0116C65.3141 52.331 64.0093 48.2581 63.2984 44.5925C63.1333 45.499 63.001 46.5778 62.921 47.5006C62.3127 54.5093 61.152 61.5773 60.6446 68.5806C56.5453 68.9711 52.2348 69.2545 48.1171 69.5771C45.5243 60.4351 42.5411 50.1024 39.3542 41.1867C38.3801 38.069 37.6109 35.5864 36.7698 32.3981C40.5188 32.1216 44.2648 31.8051 48.0071 31.4487C49.415 38.4851 51.272 45.3936 52.8765 52.3811C53.2755 54.1187 53.6266 55.8339 54.0585 57.5685C54.1422 56.4643 54.2136 55.3593 54.2885 54.2545C54.8226 46.3827 56.4393 38.6499 57.1474 30.8042C60.5785 30.3927 64.3653 30.1254 67.8311 29.8094C68.4992 34.143 70.7611 40.637 71.9505 45.0126C72.931 48.6188 73.7554 52.2039 74.7081 55.7985C74.6891 52.689 75.2154 48.2745 75.5038 45.1062C75.9549 39.6905 76.4461 34.2784 76.9771 28.8702C79.3904 28.5582 82.5234 28.399 84.9986 28.2039Z" fill="#F5ECDB"/>
<path d="M98.407 27.1199C98.9516 27.0612 99.5627 26.9352 99.9714 27.2625C100.286 28.8715 100.463 31.784 100.61 33.5239C100.82 36.0142 101.296 39.1962 101.317 41.6323C103.043 38.773 105.175 37.3538 108.533 37.162C111.12 37.0142 113.134 37.4687 115.116 39.2214C116.276 40.2302 117.131 41.5426 117.587 43.0107C118.29 45.2233 118.341 48.4659 118.523 50.8424L119.436 63.7244C116.107 63.9076 112.779 64.1105 109.452 64.3331C108.934 59.4058 108.677 54.1278 108.328 49.1524C108.145 47.0151 107.68 44.9475 105.046 45.0334C103.374 45.0879 102.305 46.4258 102.175 48.0182C101.979 50.4115 102.232 52.9175 102.415 55.3093L103.169 64.9509C99.7722 65.0803 96.3808 65.3305 93.0016 65.701C92.1469 53.0663 90.9906 40.4302 90.2295 27.8044C92.9529 27.5493 95.679 27.3212 98.407 27.1199Z" fill="#F5ECDB"/>
<path d="M135.917 34.6708C138.772 34.5673 141.462 35.2138 143.761 36.8959C149.157 40.6784 147.55 47.2305 148.321 52.8281C148.624 55.0322 149.988 54.5162 151.589 54.2124C151.792 56.3113 151.948 58.4144 152.059 60.5201C151.772 60.6664 151.483 60.8097 151.191 60.9498C148.843 62.0776 145.275 62.6078 142.738 61.7572C140.987 61.1699 140.304 60.0268 139.592 58.4861C136.58 64.229 129.272 64.7825 124.312 61.3643C121.468 58.8001 121.335 53.7297 123.585 50.8095C126.593 46.906 133.498 46.3857 137.968 45.705C137.954 44.4495 138.001 43.5805 137.085 42.6068C135.897 41.3439 133.78 41.3257 132.554 42.5515C131.682 43.4231 131.62 44.1142 131.594 45.3033C128.498 45.5853 125.388 45.6899 122.281 45.6162C122.516 37.6622 129.074 35.0902 135.917 34.6708Z" fill="#F5ECDB"/>
<path d="M137.275 50.5401C137.678 50.4789 137.86 50.4079 138.226 50.548C138.935 52.1168 138.574 54.3325 137.222 55.4805C136.061 56.4673 134.871 56.5539 133.405 56.4432C132.147 55.839 131.069 54.5146 132.065 53.1436C133.333 51.3971 135.281 50.9362 137.275 50.5401Z" fill="#1D0D1B"/>
<path d="M193.353 30.0266C198.153 29.6746 203.61 30.9836 205.18 36.2442C205.394 36.9611 205.522 37.8296 205.661 38.5718C202.917 38.9213 200.165 39.2219 197.41 39.4735C197.15 38.6874 196.925 37.9134 196.304 37.3512C195.673 36.7696 194.83 36.4757 193.974 36.5396C192.873 36.6161 191.31 37.3837 191.443 38.6322C191.603 40.1385 194.388 40.2874 195.439 40.4766C198.621 41.0495 202.036 41.3279 204.62 43.5087C208.118 46.4602 207.802 51.387 204.903 54.6393C202.28 57.5871 198.323 58.2682 194.612 58.5219C187.748 58.6401 183.433 56.9851 182.116 49.6504L190.686 48.6371C190.97 49.8866 191.3 50.5511 192.272 51.5045C193.879 53.0793 197.64 52.2669 197.521 49.7191C197.453 48.2494 194.778 48.0157 193.642 47.8395C190.499 47.3518 187.117 46.9851 184.567 44.8606C181.183 42.213 181.536 36.8368 184.062 33.7404C186.212 31.1691 190.082 30.2864 193.353 30.0266Z" fill="#F5ECDB"/>
<path d="M162.232 26.9426C162.361 26.9189 162.666 26.944 162.813 26.9503C163.307 27.565 163.491 32.1418 163.579 33.3022C165.245 33.1496 166.911 33.016 168.581 32.9017C168.804 35.3194 168.98 37.7413 169.108 40.1658C167.738 40.3595 165.563 40.4143 164.128 40.4929C164.139 43.4793 164.461 46.3895 164.681 49.3484C165.005 53.7022 166.987 52.9776 170.305 52.1048C170.486 54.3685 170.708 56.6288 170.969 58.8847C168.807 60.0177 167.367 60.3315 164.959 60.5953C164.707 60.6208 164.455 60.6409 164.202 60.6556C156.115 61.1121 154.884 56.3348 154.605 49.5969C154.493 46.9097 154.195 44.1127 154.098 41.3938L150.607 41.4355C150.621 39.3761 150.352 36.5289 150.256 34.3759C155.139 34.0681 154.038 32.2504 153.854 28.2067C156.665 27.6184 159.359 27.1548 162.232 26.9426Z" fill="#F5ECDB"/>
<path d="M174.588 21.8229C175.824 21.7493 176.933 21.7107 178.098 22.22C183.884 24.7488 179.951 36.8746 175.442 38.61C174.744 38.5739 173.091 38.6276 172.684 38.0713C172.951 36.3698 174.182 33.9073 174.645 31.6225C169.151 30.7399 169.091 23.2981 174.588 21.8229Z" fill="#F5ECDB"/>
<path d="M236.004 72.0977C241.78 72.7486 247.727 72.9647 253.53 73.4477C255.669 73.6258 258.158 73.6451 260.251 73.9045C265.206 74.2781 271.615 74.503 276.381 75.0885C276.16 87.1869 275.37 99.5469 275.045 111.672C274.89 117.408 274.303 122.971 274.359 128.825C270.401 128.734 234.302 126.664 233.539 126.049C233.77 123.79 233.761 119.287 233.885 116.812L234.932 94.4321C235.21 86.8808 235.958 79.6521 236.004 72.0977Z" fill="#E94C82"/>
<path d="M252.929 80.0662C253.715 79.9819 254.889 79.9768 255.686 79.9962C259.849 80.0599 263.815 81.7804 266.703 84.7768C268.577 86.7536 269.751 89.3365 269.587 92.1573C269.286 97.2939 268.039 99.4093 263.603 102.095C262.451 102.793 261.113 103.273 260.157 104.198C259.017 105.302 259.12 105.875 259.097 107.313C255.977 106.892 252.217 106.966 249.108 106.412C249.168 105.221 249.358 103.796 249.489 102.591C250.095 98.6453 252.946 98.5353 255.688 96.4562C257.61 94.9996 259.514 92.0786 257.673 89.8101C257.089 89.1041 256.249 88.6613 255.336 88.5807C252.118 88.2696 251.117 91.2238 250.901 93.808C247.686 93.431 244.426 93.2094 241.194 92.8689C241.775 85.9053 245.754 80.9053 252.929 80.0662Z" fill="#1D0D1B"/>
<path d="M252.662 109.663C255.762 109.097 258.737 111.143 259.317 114.24C259.896 117.337 257.863 120.32 254.769 120.913C251.655 121.51 248.649 119.462 248.065 116.346C247.481 113.23 249.543 110.233 252.662 109.663Z" fill="#1D0D1B"/>
<path d="M118.404 85.2192C119.704 85.528 123.228 85.354 124.748 85.2993C124.801 88.6894 125.031 90.7828 121.413 91.7026C121.188 91.7596 120.937 92.5201 121.193 92.7759C122.635 94.2172 122.748 95.9315 122.51 97.9048C122.331 99.5214 121.674 101.048 120.623 102.29C116.475 107.134 107.858 104.577 106.036 106.02C105.856 106.421 105.866 106.479 105.938 106.916C106.362 107.611 107.251 107.945 108.022 108.014C112.768 108.439 118.393 107.341 122.8 109.509C125.584 110.879 126.368 117.05 124.708 119.575C122.934 122.274 120.94 123.112 117.942 123.867C113.075 124.701 107.057 124.758 102.158 124.108C96.3611 123.338 93.2723 117.284 99.0239 113.63C95.1681 109.956 96.485 104.924 101.773 103.576C98.6793 101.973 97.6205 99.438 98.1264 96.0708C99.3289 88.0704 109.316 88.2431 115.183 89.0464C115.259 89.0149 115.334 88.9817 115.409 88.9487C117.17 88.1693 117.743 86.9189 118.404 85.2192ZM116.217 117.985C118.88 114.248 110.305 115.108 109.04 115.137C108.736 115.14 107.288 115.188 107.168 115.165C105.185 114.782 103.822 117.511 105.338 118.642C106.725 119.676 111.224 119.294 112.881 119.267C114.022 119.24 115.54 118.935 116.217 117.985ZM110.922 93.9448C110.387 93.7917 109.23 93.9075 108.658 93.9614C106.987 95.4119 106.168 98.0663 107.804 99.8208C108.351 100.407 109.115 100.741 109.916 100.746C110.416 100.752 111.039 100.739 111.523 100.614C114.171 98.8874 114.252 94.8977 110.922 93.9448Z" fill="#1D0D1B"/>
<path d="M226.195 76.5365C226.473 76.9045 226.353 79.1001 226.362 79.7503L226.493 87.1625L227.065 112.235C224.287 112.263 221.042 112.461 218.339 112.316C218.206 111.157 218.201 109.643 218.167 108.449C217.962 108.729 217.746 109.001 217.519 109.265C215.634 111.467 213.958 112.996 210.929 113.161C207.653 113.34 205.717 112.763 203.292 110.624C199.596 107.073 199.157 102.917 199.222 98.096C199.314 91.2489 203.395 85.9649 210.682 86.3509C213.629 86.5071 215.421 87.7423 217.321 89.8929C217.165 85.4799 217.064 81.0651 217.02 76.6498C219.163 76.8181 223.155 76.5974 225.45 76.5257C225.696 76.5134 225.948 76.5281 226.195 76.5365ZM217.095 96.9691C216.333 92.5715 210.151 92.1381 209.143 96.6302C208.596 99.5918 208.58 104.856 212.458 105.448C213.511 105.601 214.581 105.33 215.435 104.696C217.626 103.065 217.598 99.3994 217.095 96.9691Z" fill="#1D0D1B"/>
<path d="M48.1509 90.4374L51.619 90.3711C49.9046 98.2862 47.828 106.201 46.0787 114.115C45.9501 114.696 45.8327 115.28 45.7237 115.865C42.2758 115.848 38.7292 116.032 35.2371 116.033C34.3519 110.9 32.7373 106.034 31.7939 100.885C31.0871 105.959 29.9055 111.057 29.1096 116.167C25.6023 116.219 22.0954 116.293 18.5891 116.39C18.3043 115.004 17.6292 112.795 17.2342 111.362L14.4476 101.365C13.6836 98.199 12.5155 94.4327 11.969 91.288C14.8631 91.2338 18.5486 91.1906 21.375 90.9273C21.454 92.1321 22.0262 94.9683 22.2571 96.2821C22.8914 99.7149 23.4569 103.16 23.9534 106.616C24.3961 104.167 25.1385 101.755 25.6223 99.3372C26.1888 96.5054 26.6221 93.6945 27.2182 90.8545C29.5092 90.9963 34.4445 90.8003 36.7842 90.659C36.9001 92.0949 39.563 105.339 40.0298 105.762C40.2068 105.514 42.2963 91.8487 42.4981 90.5419C44.3824 90.5174 46.2668 90.4825 48.1509 90.4374Z" fill="#1D0D1B"/>
<path d="M152.816 87.3296C160.301 86.6201 166.941 92.1236 167.628 99.6099C168.317 107.096 162.793 113.718 155.303 114.385C147.844 115.049 141.252 109.554 140.568 102.097C139.882 94.6411 145.36 88.0365 152.816 87.3296ZM153.323 94.4244C149.826 95.1475 150.094 99.3263 150.21 102.152C150.329 105.071 151.741 107.246 154.923 106.884C158.845 105.38 158.346 100.198 157.39 96.816C156.842 94.8761 155.172 94.3831 153.323 94.4244Z" fill="#1D0D1B"/>
<path d="M181.854 87.0133C184.644 86.7673 187.668 87.3101 190.212 88.4587C195.937 91.0439 194.527 97.535 194.793 102.597C194.845 103.599 194.671 104.836 195.394 105.63C196.188 106.067 197.093 105.885 197.967 105.768C197.93 107.776 198.114 110.045 198.143 112.109C193.92 114.056 188.642 114.492 186.45 109.498C185.925 110.161 185.411 110.752 184.824 111.358C182.006 114.264 176.854 114.195 173.411 112.567C173.295 112.495 173.182 112.417 173.073 112.335C171.363 111.092 170.228 109.211 169.926 107.12C168.695 98.0895 179.303 97.8821 185.398 97.0954C185.349 96.7449 185.27 96.3145 185.228 95.9704C184.89 93.1459 181.347 91.951 179.782 94.6159C179.355 95.3424 179.361 95.7713 179.275 96.6266C177.078 96.8203 173.017 96.6624 170.672 96.652C170.385 89.6556 176.025 87.5643 181.854 87.0133ZM185.296 101.706C182.749 101.834 176.293 102.929 180.075 106.677C183.282 107.824 186.473 104.904 185.528 101.831L185.296 101.706Z" fill="#1D0D1B"/>
<path d="M83.2225 89.3108C93.6428 87.9702 93.3552 96.5597 93.5392 103.836C93.6585 107.52 93.7315 111.205 93.7584 114.89L84.2645 115.047C83.9558 111.699 84.5265 100.387 83.41 98.1697C83.0929 97.54 82.5067 97.0867 81.8409 96.8734C81.1137 96.6368 80.3217 96.7043 79.6448 97.0604C78.4682 97.6693 78.0813 98.7597 77.7251 99.9401C77.4419 103.818 77.9345 110.97 77.9765 115.202C74.7955 115.272 71.6141 115.316 68.4325 115.335C68.2465 112.11 68.282 108.386 68.2331 105.136C68.1498 100.119 68.0395 95.1038 67.9023 90.0887C70.5807 90.1677 73.6984 90.063 76.4267 90.0592C76.512 91.3364 76.6313 92.6112 76.7846 93.8819C77.0374 93.4327 77.3106 92.9953 77.6035 92.571C79.1077 90.4094 80.744 89.7431 83.2225 89.3108Z" fill="#1D0D1B"/>
<path d="M132.5 78.3848L136.773 78.3184C136.729 82.2822 136.902 86.3636 136.984 90.335L137.444 113.951C135.81 114.056 134.009 114.045 132.36 114.066C130.894 114.073 129.428 114.07 127.962 114.054C127.759 110.76 127.838 106.278 127.772 102.896C127.602 94.7434 127.491 86.5891 127.438 78.4345C129.108 78.453 130.827 78.4082 132.5 78.3848Z" fill="#1D0D1B"/>
<path d="M54.1478 90.2714C56.3704 90.414 60.9163 90.1658 63.4089 90.1406C63.4608 98.461 64.0071 107.208 63.888 115.458L54.5662 115.709C54.4507 107.265 54.1076 98.6956 54.1478 90.2714Z" fill="#1D0D1B"/>
<path d="M58.2885 79.2824C65.0192 79.0025 65.2915 87.871 59.0695 88.5681C54.8477 88.3775 52.222 85.4205 54.6156 81.1961C55.3253 79.9435 56.9384 79.523 58.2885 79.2824Z" fill="#1D0D1B"/>
<path d="M216.944 37.8597C217.04 37.9271 217.159 38.0105 217.301 38.1101C220.018 38.394 223.416 38.6695 226.069 38.9745L253.305 42.3117C255.915 42.6261 260.067 42.8857 262.411 43.458C262.001 50.8246 261.549 58.0507 260.745 65.3872C260.453 68.0608 260.559 71.2875 260.251 73.9044C258.158 73.6449 255.67 73.6256 253.53 73.4476C247.727 72.9646 241.78 72.7485 236.004 72.0975C233.557 71.5689 230.028 71.3434 227.471 71.0215C224.697 70.7361 221.927 70.3007 219.15 70.0457C216.491 69.8014 213.841 69.8463 211.218 69.2579C211.104 68.7144 210.983 68.1721 210.858 67.6311C210.912 58.071 211.627 47.5236 211.955 37.8335C213.02 37.8375 216.216 38.2103 216.944 37.8597Z" fill="#B5DE36"/>
<path d="M220.555 48.0117C221.952 48.1234 223.285 48.2343 224.675 48.4045C224.993 48.7982 224.851 49.0572 224.819 49.6995C225.434 50.0512 226.972 48.5518 227.871 48.4446C229.575 48.242 231.94 49.3832 232.156 51.252C232.182 51.4854 232.167 51.3859 232.357 51.5393C234.306 48.8831 236.684 48.7151 239.452 50.4083C240.85 52.9097 240.707 54.0504 240.352 56.8589C240.11 58.7763 239.829 60.7969 239.659 62.7227C238.287 62.5358 236.35 62.4762 234.93 62.3924C235.018 59.7436 235.547 57.1637 235.544 54.5405C235.544 53.7792 235.301 53.5519 234.768 53.0938C232.224 53.0414 232.394 55.2138 232.233 57.1781C232.094 58.8535 231.968 60.3628 231.693 62.0325C230.339 61.7984 228.66 61.6804 227.269 61.5485C227.338 59.8054 228.24 53.9505 227.67 52.7772C227.239 52.3909 227.17 52.3177 226.586 52.1865C224.414 52.4042 224.289 59.2738 224.083 61.2232C222.491 60.9804 220.883 60.8467 219.272 60.8226C219.357 57.1344 220.166 51.8426 220.555 48.0117Z" fill="#1D0D1B"/>
<path d="M241.92 50.1982C243.52 50.3037 245.119 50.4512 246.713 50.6406C246.987 53.2121 247.656 55.9594 247.969 58.6574C249.189 56.3213 250.061 53.8512 250.972 51.3819C252.209 51.6437 254.489 51.8249 255.762 51.8378C254.733 54.5136 252.441 58.5604 251.017 61.2243C250.441 62.3345 249.97 63.5039 249.413 64.6263C249.006 65.4532 248.542 66.583 247.792 67.1655C246.605 68.0853 244.75 68.3163 243.301 68.0706C242.618 67.9548 241.851 67.7995 241.424 67.2255C241.403 67.1929 241.21 66.8823 241.214 66.8656C241.475 65.9731 241.701 64.7244 241.846 63.8507C242.51 64.0388 243.51 64.4552 244.199 64.369C244.623 64.316 244.886 64.1446 245.13 63.8006C245.729 62.9527 242.277 52.0382 241.92 50.1982Z" fill="#1D0D1B"/>
<path d="M11.79 9.98438C12.6569 10.1709 25.4414 22.3832 27.3669 24.0101C26.6895 25.0138 24.0347 27.7356 23.083 28.609C22.5879 28.6677 22.6579 28.5805 22.1625 28.205C18.5595 25.9989 14.2316 22.6239 10.7512 20.138C9.54017 19.2729 6.94106 17.756 5.99463 16.8548C7.96875 14.2381 9.56921 12.391 11.79 9.98438Z" fill="#A377D1"/>
<path d="M1.42267 28.8462C3.48777 29.2652 20.6531 32.7472 21.1945 33.2834C21.8667 34.8355 20.7865 38.0657 20.2295 39.6179C13.3851 39.2132 6.81551 38.4333 0 37.9482C0.352963 34.8965 0.827495 31.8601 1.42267 28.8462Z" fill="#A377D1"/>
<path d="M34.5118 0.0633872C34.8658 -0.0173882 34.8527 -0.0322143 35.1865 0.0856282C35.6009 0.897861 37.1296 16.6809 37.6143 19.2269L37.5003 19.2876C36.1247 20.0134 33.2737 21.486 31.7247 20.9757C31.1828 20.7972 31.0634 20.3845 30.8502 19.8893C29.681 16.2653 28.9813 12.0798 27.7695 8.39035C27.0866 6.31151 26.7154 3.99373 26.0232 1.83458C28.704 1.21494 31.8153 0.505103 34.5118 0.0633872Z" fill="#A377D1"/>
</svg>
